<svg xmlns="http://www.w3.org/2000/svg" version="1.1" xmlns:xlink="http://www.w3.org/1999/xlink" xmlns:svgjs="http://svgjs.dev/svgjs" width="2000" height="1433" viewBox="0 0 2000 1433"><g transform="matrix(1,0,0,1,-2.3266673269165494,-2.311290322580703)"><svg viewBox="0 0 346 248" data-background-color="#ffffff" preserveAspectRatio="xMidYMid meet" height="1433" width="2000" xmlns="http://www.w3.org/2000/svg" xmlns:xlink="http://www.w3.org/1999/xlink"><g id="tight-bounds" transform="matrix(1,0,0,1,0.40251344755657215,0.4000000000000057)"><svg viewBox="0 0 345.19497310488686 247.2" height="247.2" width="345.19497310488686"><g><svg viewBox="0 0 395.52 283.2386089535898" height="247.2" width="345.19497310488686"><g><svg viewBox="0 0 395.52 283.2386089535898" height="283.2386089535898" width="395.52"><g id="textblocktransform"><svg viewBox="0 0 395.52 283.2386089535898" height="283.2386089535898" width="395.52" id="textblock"><g><svg viewBox="0 0 395.52 208.81847494553378" height="208.81847494553378" width="395.52"><g transform="matrix(1,0,0,1,0,0)"><svg width="395.52" viewBox="3 -35.5 67.24 35.5" height="208.81847494553378" data-palette-color="#00bc91"><path d="M37.99-25L37.99 0 31.01 0 31.01-25Q31.01-25.73 30.73-26.37 30.44-27 29.97-27.48 29.49-27.95 28.86-28.22 28.22-28.49 27.49-28.49L27.49-28.49Q26.76-28.49 26.12-28.22 25.49-27.95 25.01-27.48 24.54-27 24.27-26.37 24-25.73 24-25L24-25 24 0 16.99 0 16.99-25Q16.99-25.73 16.72-26.37 16.46-27 15.98-27.48 15.5-27.95 14.87-28.22 14.23-28.49 13.5-28.49L13.5-28.49Q12.77-28.49 12.13-28.22 11.5-27.95 11.02-27.48 10.55-27 10.28-26.37 10.01-25.73 10.01-25L10.01-25 10.01 0 3 0 3-25Q3-27.17 3.82-29.09 4.64-31.01 6.07-32.43 7.5-33.86 9.41-34.68 11.33-35.5 13.5-35.5L13.5-35.5Q15.45-35.5 17.26-34.8 19.07-34.11 20.51-32.79L20.51-32.79Q21.95-34.11 23.74-34.8 25.54-35.5 27.49-35.5L27.49-35.5Q29.66-35.5 31.58-34.68 33.5-33.86 34.92-32.43 36.35-31.01 37.17-29.09 37.99-27.17 37.99-25L37.99-25ZM59.74-10.96L59.74 0 52.76 0 52.76-10.96Q50.44-11.55 48.5-12.84 46.56-14.14 45.16-15.93 43.77-17.72 43-19.91 42.23-22.09 42.23-24.51L42.23-24.51 42.23-35.01 49.24-35.01 49.24-24.51Q49.24-23.07 49.79-21.79 50.34-20.51 51.29-19.56 52.24-18.6 53.53-18.05 54.81-17.5 56.25-17.5L56.25-17.5Q57.69-17.5 58.97-18.05 60.25-18.6 61.2-19.56 62.16-20.51 62.71-21.79 63.25-23.07 63.25-24.51L63.25-24.51 63.25-35.01 70.24-35.01 70.24-24.51Q70.24-22.09 69.47-19.91 68.7-17.72 67.31-15.93 65.92-14.14 63.99-12.84 62.06-11.55 59.74-10.96L59.74-10.96Z" opacity="1" transform="matrix(1,0,0,1,0,0)" fill="#00bc91" class="wordmark-text-0" data-fill-palette-color="primary" id="text-0"></path></svg></g></svg></g><g transform="matrix(1,0,0,1,166.31616,258.1155052367756)"><svg viewBox="0 0 229.20383999999999 25.12310371681416" height="25.12310371681416" width="229.20383999999999"><g transform="matrix(1,0,0,1,0,0)"><svg width="229.20383999999999" viewBox="2 -34.55 322.02 35.3" height="25.12310371681416" data-palette-color="#2a2c35"><path d="M29.05-34.55L31.25 0 25.2 0 24.6-14.6Q24.3-22.6 24.3-26L24.3-26 24.35-28.6 19.6-3.8 13.6-3.8 8.65-28.65Q8.7-27.15 8.7-24.05L8.7-24.05Q8.7-18.8 8.5-14.4L8.5-14.4 7.95 0 2 0 4.2-34.55 12.2-34.55 16.7-10.2 20.9-34.55 29.05-34.55ZM54.2-26.45L54.2 0 48.85 0 48.55-3.35Q47.3-1.3 45.75-0.28 44.2 0.75 42.15 0.75L42.15 0.75Q39.25 0.75 37.57-1.3 35.9-3.35 35.9-6.65L35.9-6.65 35.9-26.45 42.05-26.45 42.05-7Q42.05-3.9 44.15-3.9L44.15-3.9Q45.35-3.9 46.3-4.83 47.25-5.75 48.05-7.45L48.05-7.45 48.05-26.45 54.2-26.45ZM76.8-6.4Q76.8-5.1 77.15-4.48 77.5-3.85 78.3-3.45L78.3-3.45 77.05 0.65Q75 0.4 73.77-0.45 72.55-1.3 71.95-3.05L71.95-3.05Q69.65 0.75 65.5 0.75L65.5 0.75Q62.2 0.75 60.25-1.48 58.3-3.7 58.3-7.4L58.3-7.4Q58.3-11.7 60.97-13.95 63.65-16.2 68.75-16.2L68.75-16.2 70.8-16.2 70.8-18.05Q70.8-20.55 69.92-21.58 69.05-22.6 67.1-22.6L67.1-22.6Q64.75-22.6 61.25-21.3L61.25-21.3 59.85-25.3Q61.85-26.2 64-26.68 66.15-27.15 68.1-27.15L68.1-27.15Q76.8-27.15 76.8-18.35L76.8-18.35 76.8-6.4ZM67.15-3.7Q69.55-3.7 70.8-7L70.8-7 70.8-12.55 69.35-12.55Q66.8-12.55 65.62-11.4 64.45-10.25 64.45-7.85L64.45-7.85Q64.45-5.8 65.15-4.75 65.85-3.7 67.15-3.7L67.15-3.7ZM81.29-26.45L97.54-26.45 97.54-22 86.99-4.85 97.74-4.85 97.19 0 80.39 0 80.39-4.45 90.94-21.6 81.29-21.6 81.29-26.45ZM100.04-26.45L116.29-26.45 116.29-22 105.74-4.85 116.49-4.85 115.94 0 99.14 0 99.14-4.45 109.69-21.6 100.04-21.6 100.04-26.45ZM136.99-6.4Q136.99-5.1 137.34-4.48 137.69-3.85 138.49-3.45L138.49-3.45 137.24 0.65Q135.19 0.4 133.96-0.45 132.74-1.3 132.14-3.05L132.14-3.05Q129.84 0.75 125.69 0.75L125.69 0.75Q122.39 0.75 120.44-1.48 118.49-3.7 118.49-7.4L118.49-7.4Q118.49-11.7 121.16-13.95 123.84-16.2 128.94-16.2L128.94-16.2 130.99-16.2 130.99-18.05Q130.99-20.55 130.11-21.58 129.24-22.6 127.29-22.6L127.29-22.6Q124.94-22.6 121.44-21.3L121.44-21.3 120.04-25.3Q122.04-26.2 124.19-26.68 126.34-27.15 128.29-27.15L128.29-27.15Q136.99-27.15 136.99-18.35L136.99-18.35 136.99-6.4ZM127.34-3.7Q129.74-3.7 130.99-7L130.99-7 130.99-12.55 129.54-12.55Q126.99-12.55 125.81-11.4 124.64-10.25 124.64-7.85L124.64-7.85Q124.64-5.8 125.34-4.75 126.04-3.7 127.34-3.7L127.34-3.7ZM166.44-27.15Q169.09-27.15 170.69-25.1 172.28-23.05 172.28-19.6L172.28-19.6 172.28 0 166.24 0 166.24-18.95Q166.24-20.85 165.74-21.68 165.24-22.5 164.28-22.5L164.28-22.5Q162.34-22.5 160.53-18.8L160.53-18.8 160.53 0 154.53 0 154.53-18.95Q154.53-22.5 152.63-22.5L152.63-22.5Q150.59-22.5 148.84-18.8L148.84-18.8 148.84 0 142.78 0 142.78-26.45 148.13-26.45 148.53-23.05Q151.13-27.15 154.78-27.15L154.78-27.15Q156.63-27.15 157.99-26 159.34-24.85 160.03-22.75L160.03-22.75Q162.69-27.15 166.44-27.15L166.44-27.15ZM202.63-34.55L209.13-34.55 200.03-13.15 200.03 0 193.63 0 193.63-13.1 184.53-34.55 191.28-34.55 196.93-18.3 202.63-34.55ZM221.13-27.15Q226.13-27.15 228.9-23.65 231.68-20.15 231.68-13.25L231.68-13.25Q231.68-6.65 228.88-2.95 226.08 0.75 221.13 0.75L221.13 0.75Q216.18 0.75 213.38-2.88 210.58-6.5 210.58-13.25L210.58-13.25Q210.58-19.95 213.38-23.55 216.18-27.15 221.13-27.15L221.13-27.15ZM221.13-22.5Q218.98-22.5 217.98-20.38 216.98-18.25 216.98-13.25L216.98-13.25Q216.98-8.2 217.98-6.08 218.98-3.95 221.13-3.95L221.13-3.95Q223.28-3.95 224.28-6.08 225.28-8.2 225.28-13.25L225.28-13.25Q225.28-18.3 224.28-20.4 223.28-22.5 221.13-22.5L221.13-22.5ZM254.38-26.45L254.38 0 249.03 0 248.72-3.35Q247.47-1.3 245.93-0.28 244.38 0.75 242.32 0.75L242.32 0.75Q239.43 0.75 237.75-1.3 236.07-3.35 236.07-6.65L236.07-6.65 236.07-26.45 242.22-26.45 242.22-7Q242.22-3.9 244.32-3.9L244.32-3.9Q245.53-3.9 246.47-4.83 247.43-5.75 248.22-7.45L248.22-7.45 248.22-26.45 254.38-26.45ZM272.42-27.15Q275.27-27.15 276.92-25.1 278.57-23.05 278.57-19.6L278.57-19.6 278.57 0 272.42 0 272.42-18.9Q272.42-20.8 271.9-21.63 271.37-22.45 270.37-22.45L270.37-22.45Q268.27-22.45 266.22-18.5L266.22-18.5 266.22 0 260.07 0 260.07-26.45 265.42-26.45 265.87-23Q267.22-25.1 268.75-26.13 270.27-27.15 272.42-27.15L272.42-27.15ZM302.27-26.45L302.27 0 296.92 0 296.62-3.35Q295.37-1.3 293.82-0.28 292.27 0.75 290.22 0.75L290.22 0.75Q287.32 0.75 285.65-1.3 283.97-3.35 283.97-6.65L283.97-6.65 283.97-26.45 290.12-26.45 290.12-7Q290.12-3.9 292.22-3.9L292.22-3.9Q293.42-3.9 294.37-4.83 295.32-5.75 296.12-7.45L296.12-7.45 296.12-26.45 302.27-26.45ZM315.32-27.15Q320.02-27.15 323.27-24.05L323.27-24.05 320.92-20.7Q319.52-21.7 318.27-22.2 317.02-22.7 315.72-22.7L315.72-22.7Q314.27-22.7 313.44-21.93 312.62-21.15 312.62-19.8L312.62-19.8Q312.62-18.45 313.54-17.63 314.47-16.8 317.27-15.7L317.27-15.7Q320.72-14.35 322.37-12.5 324.02-10.65 324.02-7.55L324.02-7.55Q324.02-3.7 321.32-1.48 318.62 0.75 314.47 0.75L314.47 0.75Q311.77 0.75 309.49-0.23 307.22-1.2 305.52-2.95L305.52-2.95 308.52-6.25Q311.32-3.8 314.22-3.8L314.22-3.8Q315.87-3.8 316.82-4.67 317.77-5.55 317.77-7.1L317.77-7.1Q317.77-8.25 317.37-8.97 316.97-9.7 315.97-10.33 314.97-10.95 312.97-11.7L312.97-11.7Q309.52-13.05 308.04-14.85 306.57-16.65 306.57-19.45L306.57-19.45Q306.57-22.8 308.94-24.98 311.32-27.15 315.32-27.15L315.32-27.15Z" opacity="1" transform="matrix(1,0,0,1,0,0)" fill="#2a2c35" class="slogan-text-1" data-fill-palette-color="secondary" id="text-1"></path></svg></g></svg></g></svg></g></svg></g></svg></g><defs></defs></svg><rect width="345.19497310488686" height="247.2" fill="none" stroke="none" visibility="hidden"></rect></g></svg></g></svg>